<?xml version="1.0" standalone="no"?><!DOCTYPE svg PUBLIC "-//W3C//DTD SVG 1.1//EN" "http://www.w3.org/Graphics/SVG/1.1/DTD/svg11.dtd"><svg t="1520500153086" class="icon" style="" viewBox="0 0 1024 1024" version="1.1" xmlns="http://www.w3.org/2000/svg" p-id="7127" xmlns:xlink="http://www.w3.org/1999/xlink" width="200" height="200"><defs><style type="text/css"></style></defs><path d="M305.826314 239.948931 305.826314 114.379027c0-27.108405 21.979594-49.089022 49.089022-49.089022 27.108405 0 49.089022 21.979594 49.089022 49.089022l0 125.569904c0 27.109428-21.980617 49.089022-49.089022 49.089022C327.805908 289.037952 305.826314 267.058358 305.826314 239.948931zM669.084665 289.037952c27.108405 0 49.089022-21.979594 49.089022-49.089022L718.173686 114.379027c0-27.108405-21.979594-49.089022-49.089022-49.089022s-49.089022 21.979594-49.089022 49.089022l0 125.569904C619.995643 267.058358 641.975237 289.037952 669.084665 289.037952zM337.641927 458.002179l348.742752 0c21.687952 0 39.271422-17.58347 39.271422-39.271422 0-21.687952-17.58347-39.271422-39.271422-39.271422l-348.742752 0c-21.687952 0-39.271422 17.58347-39.271422 39.271422C298.370505 440.418708 315.953975 458.002179 337.641927 458.002179zM885.08823 134.01525l-81.96478 0c-21.687952 0-39.271422 17.58347-39.271422 39.271422s17.58347 39.271422 39.271422 39.271422l42.681078 0 0 667.61008L178.195471 880.168174 178.195471 212.55707l42.707684 0c21.687952 0 39.271422-17.58347 39.271422-39.271422s-17.58347-39.271422-39.271422-39.271422l-81.965803 0c-21.686928 0-39.283702 21.140483-39.283702 42.828434l0 742.594889c0 21.687952 17.596773 39.271422 39.283702 39.271422l746.151901 0c21.687952 0 39.258119-17.58347 39.258119-39.271422L924.347372 176.842661C924.347372 155.155732 906.776182 134.01525 885.08823 134.01525zM479.650221 212.55707l64.72514 0c21.687952 0 39.271422-17.58347 39.271422-39.271422s-17.58347-39.271422-39.271422-39.271422l-64.72514 0c-21.687952 0-39.271422 17.58347-39.271422 39.271422S457.96227 212.55707 479.650221 212.55707zM337.641927 634.722042l348.742752 0c21.687952 0 39.271422-17.58347 39.271422-39.271422s-17.58347-39.271422-39.271422-39.271422l-348.742752 0c-21.687952 0-39.271422 17.58347-39.271422 39.271422S315.953975 634.722042 337.641927 634.722042z" p-id="7128"></path></svg>