<?xml version="1.0" standalone="no"?><!DOCTYPE svg PUBLIC "-//W3C//DTD SVG 1.1//EN" "http://www.w3.org/Graphics/SVG/1.1/DTD/svg11.dtd"><svg t="1520500040931" class="icon" style="" viewBox="0 0 1025 1024" version="1.1" xmlns="http://www.w3.org/2000/svg" p-id="3923" xmlns:xlink="http://www.w3.org/1999/xlink" width="200.1953125" height="200"><defs><style type="text/css"></style></defs><path d="M575.711292 493.23296c42.638683-42.638683 66.121287-99.329867 66.121287-159.629901s-23.482604-116.992242-66.121287-159.630925c-42.638683-42.638683-99.329867-66.121287-159.629901-66.121287s-116.991218 23.482604-159.629901 66.121287-66.121287 99.330891-66.121287 159.630925 23.482604 116.991218 66.121287 159.629901 99.329867 66.121287 159.629901 66.121287S533.072609 535.871643 575.711292 493.23296zM239.993089 333.603059c0-97.095964 78.992338-176.089325 176.088302-176.089325s176.088302 78.993361 176.088302 176.089325-78.992338 176.088302-176.088302 176.088302S239.993089 430.699023 239.993089 333.603059z" p-id="3924"></path><path d="M689.114136 485.02833c-79.949578 0-144.993841 65.044263-144.993841 144.993841 0 79.950602 65.044263 144.994865 144.993841 144.994865s144.993841-65.044263 144.993841-144.994865C834.107978 550.072593 769.063715 485.02833 689.114136 485.02833zM689.114136 745.219714c-63.519844 0-115.196519-51.677699-115.196519-115.197543 0-63.519844 51.677699-115.196519 115.196519-115.196519s115.196519 51.676675 115.196519 115.196519C804.310655 693.543039 752.632956 745.219714 689.114136 745.219714z" p-id="3925"></path><path d="M517.852991 682.865964c0-50.58839-41.157263-91.746677-91.746677-91.746677-50.589413 0-91.746677 41.158287-91.746677 91.746677s41.157263 91.746677 91.746677 91.746677C476.694704 774.612641 517.852991 733.455377 517.852991 682.865964zM426.106314 744.815318c-34.158655 0-61.949355-27.7907-61.949355-61.949355 0-34.158655 27.7907-61.949355 61.949355-61.949355s61.949355 27.7907 61.949355 61.949355C488.055668 717.024619 460.264969 744.815318 426.106314 744.815318z" p-id="3926"></path><path d="M544.615808 761.461072c-42.647897 0-77.345064 34.697167-77.345064 77.34404s34.697167 77.343017 77.345064 77.343017c42.647897 0 77.343017-34.696143 77.343017-77.343017S587.262681 761.461072 544.615808 761.461072zM544.615808 886.351831c-26.217139 0-47.546718-21.328556-47.546718-47.545694s21.329579-47.546718 47.546718-47.546718 47.545694 21.329579 47.545694 47.546718S570.832947 886.351831 544.615808 886.351831z" p-id="3927"></path></svg>