<?xml version="1.0" standalone="no"?><!DOCTYPE svg PUBLIC "-//W3C//DTD SVG 1.1//EN" "http://www.w3.org/Graphics/SVG/1.1/DTD/svg11.dtd"><svg class="icon" width="200px" height="200.00px" viewBox="0 0 1024 1024" version="1.1" xmlns="http://www.w3.org/2000/svg"><path fill="#515151" d="M832.006034 128C867.348925 128 896 156.646004 896 192 896 227.346224 867.352907 256 832.006034 256L191.993966 256C156.651075 256 128 227.353996 128 192 128 156.653776 156.647093 128 191.993966 128L832.006034 128ZM831.991096 448C867.342237 448 896 476.646004 896 512 896 547.346224 867.336879 576 831.991096 576L512.008904 576C476.657763 576 448 547.353996 448 512 448 476.653776 476.663121 448 512.008904 448L831.991096 448ZM832.006034 768C867.348925 768 896 796.646004 896 832 896 867.346224 867.352907 896 832.006034 896L191.993966 896C156.651075 896 128 867.353996 128 832 128 796.653776 156.647093 768 191.993966 768L832.006034 768ZM293.678831 353.50195C308.215611 340.75307 320 346.094912 320 365.418225L320 659.581775C320 678.911832 308.223933 684.254229 293.678831 671.49805L138.704105 535.58389C124.167324 522.83501 124.159002 502.172289 138.704105 489.41611L293.678831 353.50195Z" /></svg>